<svg width="37" height="37" viewBox="0 0 37 37" fill="none" xmlns="http://www.w3.org/2000/svg">
<mask id="mask0_53_224" style="mask-type:alpha" maskUnits="userSpaceOnUse" x="0" y="0" width="37" height="37">
<rect width="37" height="37" fill="#D9D9D9"/>
</mask>
<g mask="url(#mask0_53_224)">
<path d="M26.2083 24.6667C24.9236 24.6667 23.8316 24.217 22.9323 23.3177C22.033 22.4184 21.5833 21.3264 21.5833 20.0417C21.5833 18.7569 22.033 17.6649 22.9323 16.7656C23.8316 15.8663 24.9236 15.4167 26.2083 15.4167C27.4931 15.4167 28.5851 15.8663 29.4844 16.7656C30.3837 17.6649 30.8333 18.7569 30.8333 20.0417C30.8333 21.3264 30.3837 22.4184 29.4844 23.3177C28.5851 24.217 27.4931 24.6667 26.2083 24.6667ZM26.2083 21.5833C26.6451 21.5833 27.011 21.4353 27.306 21.1393C27.602 20.8444 27.75 20.4785 27.75 20.0417C27.75 19.6049 27.602 19.2385 27.306 18.9425C27.011 18.6475 26.6451 18.5 26.2083 18.5C25.7715 18.5 25.4056 18.6475 25.1107 18.9425C24.8147 19.2385 24.6667 19.6049 24.6667 20.0417C24.6667 20.4785 24.8147 20.8444 25.1107 21.1393C25.4056 21.4353 25.7715 21.5833 26.2083 21.5833ZM16.9583 35.4583V30.9875C16.9583 30.4479 17.0868 29.9402 17.3438 29.4643C17.6007 28.9895 17.9604 28.6108 18.4229 28.3281C19.2451 27.8399 20.1121 27.435 21.0237 27.1133C21.9364 26.7926 22.8681 26.5552 23.8188 26.401L26.2083 29.2917L28.5979 26.401C29.5486 26.5552 30.4736 26.7926 31.3729 27.1133C32.2722 27.435 33.133 27.8399 33.9552 28.3281C34.4177 28.6108 34.7841 28.9895 35.0544 29.4643C35.3237 29.9402 35.4583 30.4479 35.4583 30.9875V35.4583H16.9583ZM20.0031 32.375H24.7437L22.6625 29.8313C22.2 29.9597 21.7503 30.1267 21.3135 30.3323C20.8767 30.5378 20.4399 30.7563 20.0031 30.9875V32.375ZM27.6729 32.375H32.375V30.9875C31.9639 30.7306 31.5399 30.506 31.1031 30.3138C30.6663 30.1206 30.2167 29.9597 29.7542 29.8313L27.6729 32.375ZM7.70833 32.375C6.86042 32.375 6.13429 32.0733 5.52996 31.47C4.92665 30.8657 4.625 30.1396 4.625 29.2917V7.70833C4.625 6.86042 4.92665 6.13429 5.52996 5.52996C6.13429 4.92665 6.86042 4.625 7.70833 4.625H29.2917C30.1396 4.625 30.8657 4.92665 31.47 5.52996C32.0733 6.13429 32.375 6.86042 32.375 7.70833V15.4167C31.9639 14.9028 31.5142 14.4146 31.026 13.9521C30.5378 13.4896 29.9597 13.1813 29.2917 13.0271V7.70833H7.70833V29.2917H14.1062C14.0292 29.5743 13.9716 29.8569 13.9336 30.1396C13.8945 30.4222 13.875 30.7049 13.875 30.9875V32.375H7.70833ZM10.7917 13.875H21.5833C22.2514 13.3611 22.9837 12.9757 23.7802 12.7188C24.5767 12.4618 25.3861 12.3333 26.2083 12.3333V10.7917H10.7917V13.875ZM10.7917 20.0417H18.5C18.5 19.5021 18.5581 18.9753 18.6742 18.4615C18.7893 17.9476 18.9497 17.4465 19.1552 16.9583H10.7917V20.0417ZM10.7917 26.2083H16.1104C16.3931 25.9771 16.6952 25.7715 17.0169 25.5917C17.3376 25.4118 17.6649 25.2448 17.999 25.0906V23.125H10.7917V26.2083ZM7.70833 29.2917V7.70833V12.9885V12.3333V29.2917Z" fill="white"/>
</g>
</svg>
